<svg width="33" height="33" viewBox="0 0 33 33" fill="none" xmlns="http://www.w3.org/2000/svg">
<g clip-path="url(#clip0_1_2)">
<path d="M12.6923 2.61895H20.3077V4.19048H12.6923V2.61895ZM12.6923 30.381H20.3077V28.8095H12.6923V30.381ZM0 15.7142H7.61546V17.2858H0V15.7142ZM9.1384 4.19048H12.6923V5.76201H9.1384V4.19048ZM7.61546 5.76201H9.1384L9.13866 7.33354H7.61546V5.76201ZM6.09227 7.33328L7.61546 7.33354V8.9048H6.09227V7.33328ZM4.56933 8.9048H6.09253V12.5714H4.56933V8.9048Z" fill="white"/>
<path d="M3.04613 12.5714H4.56933V20.4286H3.04613V12.5714ZM15.7384 0H17.2616V7.85712H15.7384V0ZM15.7387 33H17.2616V25.1429H15.7387V33Z" fill="white"/>
<path d="M12.6923 2.61895H20.3077V4.19048H12.6923V2.61895ZM12.6923 30.381H20.3077V28.8095H12.6923V30.381ZM0 15.7142H7.61546V17.2858H0V15.7142ZM33 15.7142H25.3845V17.2858H33V15.7142ZM23.8613 4.19048H20.3077L20.308 5.76201H23.8613V4.19048ZM23.8613 28.8095H20.3077L20.3075 27.238H23.8613V28.8095ZM25.3845 5.76201H23.8613V7.33354H25.3845V5.76201ZM25.3848 27.238H23.8613V25.6665H25.3845L25.3848 27.238ZM26.9077 7.33328L25.3845 7.33354V8.9048H26.9077V7.33328Z" fill="white"/>
<path d="M26.9077 25.6667H25.3845V24.0952H26.9077V25.6667ZM9.13866 28.8095H12.6923V27.238H9.13866V28.8095ZM7.61547 27.238H9.13866V25.6665H7.61547V27.238ZM6.09227 25.6667L7.61547 25.6665V24.0952H6.09227V25.6667ZM4.56933 24.0952H6.09253V20.4288H4.56933V24.0952ZM28.4307 8.9048H26.9075V12.5712H28.4307V8.9048ZM28.4307 24.0952H26.9077L26.9075 20.4288H28.4307V24.0952ZM3.04613 12.5714H4.56933V20.4288L3.04613 20.4286V12.5714ZM29.9539 12.5714L28.4307 12.5712V20.4288L29.9539 20.4286V12.5714ZM15.7384 0H17.2616V7.85712H15.7384V0Z" fill="white"/>
<path d="M15.7384 13.0953H17.2616V15.7142H15.7384V13.0953ZM19.8 15.7142V17.2858H17.2616V15.7142H19.8ZM15.7384 17.2858H17.2616V19.9047H15.7384V17.2858ZM15.7384 15.7142V17.2858H13.2V15.7142H15.7384Z" fill="#F24E1E"/>
<path d="M15.7387 33H17.2616V25.1429H15.7387V33Z" fill="white"/>
</g>
<defs>
<clipPath id="clip0_1_2">
<rect width="33" height="33" fill="white"/>
</clipPath>
</defs>
</svg>
